<svg viewBox="0 0 16 16" fill="none" xmlns="http://www.w3.org/2000/svg" id="Arrow-Up-Right--Streamline-Unicons" height="16" width="16"><desc>Arrow Up Right Streamline Icon: https://streamlinehq.com</desc><path d="M15.735533333333333 0.9697333333333332C15.602933333333333 0.6506 15.349333333333334 0.397 15.030266666666666 0.2644666666666666 14.873266666666666 0.19753333333333334 14.704666666666665 0.16206666666666666 14.533933333333332 0.15999999999999998H1.4735999999999998C1.1272 0.15999999999999998 0.7949999999999999 0.2976 0.5500666666666666 0.5425333333333333c-0.24486666666666668 0.24493333333333334 -0.3824666666666666 0.5771333333333333 -0.3824666666666666 0.9235333333333333s0.1376 0.6785333333333333 0.3825333333333333 0.9234666666666667c0.24493333333333334 0.24493333333333334 0.5770666666666666 0.3825333333333333 0.9234666666666667 0.3825333333333333h9.912799999999999L0.5463333333333333 13.599133333333334c-0.12240000000000001 0.12140000000000001 -0.21960000000000002 0.26586666666666664 -0.28586666666666666 0.4249333333333333 -0.06633333333333333 0.1592 -0.10046666666666666 0.3299333333333333 -0.10046666666666666 0.5023333333333333s0.034133333333333335 0.34306666666666663 0.10046666666666666 0.5022666666666666c0.06626666666666667 0.15906666666666666 0.16346666666666665 0.3035333333333333 0.28586666666666666 0.42499999999999993 0.12140000000000001 0.12240000000000001 0.26586666666666664 0.2195333333333333 0.42499999999999993 0.2859333333333333 0.15913333333333332 0.06633333333333333 0.32986666666666664 0.1004 0.5022666666666666 0.1004 0.1724 0 0.34313333333333335 -0.03406666666666666 0.5022666666666666 -0.1004 0.1592 -0.06639999999999999 0.3036 -0.1635333333333333 0.42499999999999993 -0.2859333333333333L13.227933333333333 4.6136v9.912799999999999c0 0.34633333333333327 0.13766666666666666 0.6786 0.3825333333333333 0.9234666666666667s0.5771333333333333 0.3825333333333333 0.9234666666666667 0.3825333333333333c0.34639999999999993 0 0.6786666666666666 -0.1376 0.9235333333333333 -0.3825333333333333s0.3825333333333333 -0.5771333333333333 0.3825333333333333 -0.9234666666666667V1.4660666666666666c-0.0020666666666666663 -0.17073333333333332 -0.037599999999999995 -0.3393333333333333 -0.10446666666666667 -0.49633333333333335Z" fill="#000000" stroke-width="0.6667"></path></svg>