<svg xmlns="http://www.w3.org/2000/svg" viewBox="0 0 15 15" id="Currency-Rupee-2-Fill--Streamline-Mingcute-Fill" height="15" width="15"><desc>Currency Rupee 2 Fill Streamline Icon: https://streamlinehq.com</desc><g fill="none" fill-rule="nonzero"><path d="M15 0v15H0V0zM7.870625 14.536249999999999l-0.006874999999999999 0.00125 -0.044375 0.021875000000000002 -0.0125 0.0025 -0.00875 -0.0025 -0.044375 -0.021875000000000002c-0.00625 -0.0025 -0.011875 -0.000625 -0.015 0.003125l-0.0025 0.00625 -0.010625 0.2675 0.003125 0.0125 0.00625 0.008125 0.065 0.04625 0.009375 0.0025 0.0075 -0.0025 0.065 -0.04625 0.0075 -0.01 0.0025 -0.010625 -0.010625 -0.266875c-0.00125 -0.00625 -0.005625 -0.010625 -0.010625 -0.01125m0.16562500000000002 -0.07062500000000001 -0.008125 0.00125 -0.115625 0.058124999999999996 -0.00625 0.00625 -0.001875 0.006874999999999999 0.01125 0.26875 0.003125 0.0075 0.005 0.004375 0.12562500000000001 0.058124999999999996c0.0075 0.0025 0.014374999999999999 0 0.018125000000000002 -0.005l0.0025 -0.00875 -0.02125 -0.38375c-0.001875 -0.0075 -0.00625 -0.0125 -0.0125 -0.013749999999999998m-0.44687499999999997 0.00125a0.014374999999999999 0.014374999999999999 0 0 0 -0.016875 0.00375l-0.00375 0.00875 -0.02125 0.38375c0 0.0075 0.004375 0.0125 0.010625 0.015l0.009375 -0.00125 0.12562500000000001 -0.058124999999999996 0.00625 -0.005 0.0025 -0.006874999999999999 0.010625 -0.26875 -0.001875 -0.0075 -0.00625 -0.00625z" stroke-width="0.625"></path><path fill="#ffffff" d="M4.375 4.0625a0.9375 0.9375 0 1 1 0 -1.875h6.875a0.9375 0.9375 0 0 1 0 1.875h-2.20125c0.2425 0.37875 0.42375 0.8 0.53 1.25H11.25a0.9375 0.9375 0 0 1 0 1.875h-1.67125a4.070625 4.070625 0 0 1 -2.60125 2.894375l2.3175 1.655a0.9375 0.9375 0 0 1 -1.09 1.52625l-4.363125 -3.1168750000000003a0.9275 0.9275 0 0 1 -0.40375 -0.7374999999999999 0.9518749999999999 0.9518749999999999 0 0 1 0.219375 -0.6375c0.1825 -0.21687499999999998 0.44437499999999996 -0.3375 0.73 -0.33375H5.625a2.1875 2.1875 0 0 0 1.976875 -1.25H4.375a0.9375 0.9375 0 0 1 0 -1.875h3.226875A2.1875 2.1875 0 0 0 5.625 4.0625z" stroke-width="0.625"></path></g></svg>