<svg xmlns="http://www.w3.org/2000/svg" fill="none" viewBox="0 0 35 35" id="Kin--Streamline-Cryptocurrency" height="35" width="35"><desc>Kin Streamline Icon: https://streamlinehq.com</desc><path fill="#005fff" d="M17.5 35c9.66503125 0 17.5 -7.83496875 17.5 -17.5 0 -9.6649875 -7.83496875 -17.5 -17.5 -17.5C7.8350124999999995 0 0 7.8350124999999995 0 17.5c0 9.66503125 7.8350124999999995 17.5 17.5 17.5Z" stroke-width="1.0938"></path><path fill="#ffffff" fill-rule="evenodd" d="M14.98546875 19.69515625V14.4265625h1.23046875c0.26578124999999997 0 0.48125 0.2121875 0.48125 0.47359375v0.45499999999999996c0 0.494375 0.42875 0.91875 0.92859375 0.91875 0.49984375000000003 0 0.879375 -0.424375 0.879375 -0.91875v-0.4375c0 -0.27125 0.22203125 -0.4921875 0.49765625 -0.4921875h1.37046875v1.3321874999999999c0 0.27125 -0.223125 0.4921875 -0.49765625 0.4921875h-0.46484375c-0.2384375 -0.001203125 -0.4676875 0.092203125 -0.6374375 0.259765625 -0.16975 0.167453125 -0.266109375 0.395390625 -0.2681875 0.633828125 0 0.49328125 0.46375 0.89359375 0.96359375 0.89359375h0.41015625c0.2734375 0 0.494375 0.21875 0.494375 0.4878125v1.1703125h1.10359375c0.3828125 0 0.69234375 0.3040625 0.69234375 0.678125v0.40140624999999996c0 0.3740625 -0.310625 0.678125 -0.69234375 0.678125h-0.41125c-0.090015625 0.000984375 -0.179375 -0.01575 -0.262828125 -0.049328125 -0.0835625 -0.03346875 -0.15968749999999998 -0.083234375 -0.224 -0.146125 -0.0643125 -0.063 -0.1155 -0.13803125 -0.150828125 -0.2209375 -0.03521875 -0.082796875 -0.0538125 -0.17171875 -0.0546875 -0.261734375v-0.9034375H18.9984375c-0.2734375 0 -0.49328125 -0.21875 -0.49328125 -0.4878125v-0.450625c-0.00459375 -0.242046875 -0.103359375 -0.47271874999999997 -0.275296875 -0.643015625 -0.17193750000000002 -0.17040624999999998 -0.40359375 -0.266984375 -0.6456406250000001 -0.269171875 -0.49984375000000003 0 -0.888125 0.4375 -0.888125 0.95703125v0.4090625c0 0.26796875 -0.21875 0.48453125 -0.49 0.48453125h-1.220625v0.9034375c0 0.3740625 -0.30953125 0.678125 -0.69234375 0.678125h-0.41015625c-0.090015625 0.000984375 -0.179375 -0.01575 -0.262828125 -0.049328125 -0.0835625 -0.03346875 -0.15968749999999998 -0.083234375 -0.224 -0.146125 -0.0643125 -0.063 -0.1155 -0.13803125 -0.150828125 -0.2209375 -0.03521875 -0.082796875 -0.0538125 -0.17171875 -0.0546875 -0.261734375v-0.40140624999999996c0 -0.3740625 0.30953125 -0.678125 0.69234375 -0.678125h1.1025Zm6.49140625 -5.4446875h-1.1046875v-1.0784375c0 -0.3740625 0.310625 -0.678125 0.6934375 -0.678125h0.41125c0.3828125 0 0.69234375 0.3040625 0.69234375 0.678125v0.40140624999999996c0 0.3740625 -0.310625 0.67703125 -0.69234375 0.67703125Zm-6.49140625 0h-1.1025c-0.08990625 0.000984375 -0.17915625 -0.01575 -0.26260937500000003 -0.04921875s-0.15946875000000002 -0.083015625 -0.22378125000000001 -0.14590625c-0.0643125 -0.062890625 -0.115609375 -0.1378125 -0.1509375 -0.2205 -0.035328125 -0.0826875 -0.05403125 -0.17149999999999999 -0.055015625 -0.26140625v-0.40140624999999996c0 -0.3740625 0.30953125 -0.678125 0.69234375 -0.678125h0.41015625c0.3828125 0 0.69234375 0.3040625 0.69234375 0.678125v1.0784375Zm2.48828125 -1.58046875c-0.090015625 0.000984375 -0.179375 -0.01575 -0.262828125 -0.049328125 -0.0835625 -0.03346875 -0.15968749999999998 -0.083234375 -0.224 -0.146125 -0.0643125 -0.063 -0.1155 -0.13803125 -0.150828125 -0.2209375 -0.03521875 -0.082796875 -0.0538125 -0.17171875 -0.0546875 -0.261734375v-0.40140624999999996c0 -0.3740625 0.310625 -0.67703125 0.69234375 -0.67703125h0.41125c0.3828125 0 0.69234375 0.30296875 0.69234375 0.678125v0.40140624999999996c-0.000984375 0.08990625 -0.0196875 0.17871874999999998 -0.055015625 0.26140625 -0.035328125 0.0826875 -0.08662500000000001 0.157609375 -0.1509375 0.2205 -0.0643125 0.062890625 -0.140328125 0.1124375 -0.22378125000000001 0.14590625 -0.083453125 0.03346875 -0.172703125 0.050203125 -0.26260937500000003 0.04921875h-0.41125Zm0 10.714374999999999c-0.090015625 0.000984375 -0.179375 -0.01575 -0.262828125 -0.049328125 -0.0835625 -0.03346875 -0.15968749999999998 -0.083234375 -0.224 -0.146125 -0.0643125 -0.063 -0.1155 -0.13803125 -0.150828125 -0.2209375 -0.03521875 -0.082796875 -0.0538125 -0.17171875 -0.0546875 -0.261734375v-0.40140624999999996c0 -0.3740625 0.310625 -0.678125 0.69234375 -0.678125h0.41125c0.3828125 0 0.69234375 0.3040625 0.69234375 0.678125v0.40249999999999997c-0.000984375 0.08990625 -0.0196875 0.17871874999999998 -0.055015625 0.26140625 -0.035328125 0.0826875 -0.08662500000000001 0.157609375 -0.1509375 0.2205 -0.0643125 0.062890625 -0.140328125 0.1124375 -0.22378125000000001 0.14590625 -0.083453125 0.03346875 -0.172703125 0.050203125 -0.26260937500000003 0.04921875h-0.41125Zm5.3878125 -5.4457812500000005c-0.08990625 0.000984375 -0.17915625 -0.01575 -0.26260937500000003 -0.04921875s-0.15946875000000002 -0.083015625 -0.22378125000000001 -0.14590625c-0.0643125 -0.062890625 -0.115609375 -0.1378125 -0.1509375 -0.2205 -0.035328125 -0.0826875 -0.05403125 -0.17149999999999999 -0.055015625 -0.26140625v-0.40140624999999996c0 -0.3740625 0.30953125 -0.678125 0.69234375 -0.678125h0.41015625c0.3828125 0 0.69234375 0.3040625 0.69234375 0.678125v0.40140624999999996c0 0.3740625 -0.30953125 0.678125 -0.69234375 0.678125l-0.41015625 -0.00109375Zm-10.953906250000001 0c-0.08990625 0.000984375 -0.17915625 -0.01575 -0.26260937500000003 -0.04921875s-0.15946875000000002 -0.083015625 -0.22378125000000001 -0.14590625c-0.0643125 -0.062890625 -0.115609375 -0.1378125 -0.1509375 -0.2205 -0.035328125 -0.0826875 -0.05403125 -0.17149999999999999 -0.055015625 -0.26140625v-0.40140624999999996c0 -0.3740625 0.30953125 -0.678125 0.69234375 -0.678125h0.41015625c0.3828125 0 0.6934375 0.3040625 0.6934375 0.678125v0.40140624999999996c0 0.3740625 -0.310625 0.678125 -0.6934375 0.678125l-0.41015625 -0.00109375Zm8.4940625 5.4917187499999995c0.153234375 -0.06234375 0.324734375 -0.06234375 0.47796875 0s0.2760625 0.182 0.34234375 0.33359374999999997c0.031390625 0.0748125 0.047578125 0.155203125 0.047468750000000004 0.23646875 -0.000109375 0.08115625 -0.01640625 0.161546875 -0.048015625 0.23635937499999998 -0.031609374999999995 0.074703125 -0.07776562499999999 0.142515625 -0.13595312499999998 0.19917187500000003 -0.058078125 0.05665625 -0.12698437499999998 0.101171875 -0.2025625 0.1308125 -0.153125 0.06234375 -0.32451562500000003 0.06256250000000001 -0.47775 0.0004375s-0.2760625 -0.18156250000000002 -0.3425625 -0.3329375c-0.031390625 -0.074921875 -0.047578125 -0.15542187500000001 -0.047468750000000004 -0.23668750000000002 0 -0.08126562500000001 0.016296875 -0.16165624999999997 0.04790625 -0.236578125s0.077875 -0.142734375 0.13595312499999998 -0.1995c0.058187499999999996 -0.056765625 0.12709375 -0.10139062500000001 0.202671875 -0.131140625ZM14.65625 9.73109375c0.153125 -0.062398437499999994 0.32451562500000003 -0.06256250000000001 0.47775 -0.00045937500000000004 0.153234375 0.062103124999999995 0.2760625 0.1815734375 0.3425625 0.332959375 0.031281250000000003 0.07487812499999999 0.04725 0.155246875 0.047140625 0.2363921875 -0.00021875 0.08115625 -0.016515625 0.16144843749999999 -0.048124999999999994 0.23620625 -0.031609374999999995 0.07475781249999999 -0.07776562499999999 0.1424609375 -0.135734375 0.1991609375 -0.058078125 0.0567 -0.12687500000000002 0.1012484375 -0.20234375 0.131053125 -0.153234375 0.0627375 -0.32495312499999995 0.0630765625 -0.47840625000000003 0.0009515625 -0.153453125 -0.0621359375 -0.276609375 -0.181803125 -0.34299999999999997 -0.33345156249999997 -0.031281250000000003 -0.07487812499999999 -0.04725 -0.155246875 -0.047140625 -0.2363921875 0.00021875 -0.08115625 0.016515625 -0.16144843749999999 0.048124999999999994 -0.23620625 0.031609374999999995 -0.07475781249999999 0.07776562499999999 -0.1424609375 0.135734375 -0.1991609375 0.058078125 -0.0567 0.12796875000000002 -0.1012484375 0.2034375 -0.131053125Zm9.3559375 4.843125c-0.031390625 -0.07503125 -0.047468750000000004 -0.15553124999999998 -0.047359374999999995 -0.23690624999999998 0.000109375 -0.08126562500000001 0.016515625 -0.161765625 0.048234375 -0.23668750000000002 0.031718750000000004 -0.0748125 0.07809375 -0.14262499999999997 0.13628125 -0.199390625 0.058296875 -0.056765625 0.1273125 -0.10128125 0.20299999999999999 -0.130921875 0.153125 -0.06234375 0.32451562500000003 -0.06256250000000001 0.47775 -0.0004375s0.2760625 0.18156250000000002 0.3425625 0.3329375c0.031390625 0.074921875 0.047578125 0.15542187500000001 0.047468750000000004 0.23668750000000002 0 0.08126562500000001 -0.016296875 0.16165624999999997 -0.04790625 0.236578125s-0.077875 0.142734375 -0.13595312499999998 0.1995c-0.058187499999999996 0.056765625 -0.12709375 0.10139062500000001 -0.202671875 0.131140625 -0.153125 0.06234375 -0.32451562500000003 0.06256250000000001 -0.47775 0.0004375s-0.27715625 -0.18156250000000002 -0.34365625 -0.3329375ZM10.184999999999999 20.19390625c-0.031237499999999998 -0.074921875 -0.04720625 -0.15542187500000001 -0.046965625 -0.236578125 0.000240625 -0.08115625 0.016690625 -0.161546875 0.048365625 -0.23625 0.031675 -0.0748125 0.0779515625 -0.142515625 0.136128125 -0.19917187500000003 0.058165625 -0.05665625 0.12705 -0.101171875 0.20262812500000002 -0.1308125 0.1532015625 -0.063 0.324996875 -0.063546875 0.478515625 -0.0013124999999999999 0.1535625 0.06212500000000001 0.27671875 0.182 0.342890625 0.3338125 0.031281250000000003 0.074921875 0.04725 0.155203125 0.047140625 0.23635937499999998 -0.00021875 0.08115625 -0.016515625 0.1614375 -0.048124999999999994 0.23625 -0.031609374999999995 0.074703125 -0.07776562499999999 0.14240625 -0.135734375 0.19917187500000003 -0.058078125 0.05665625 -0.12687500000000002 0.10128125 -0.20234375 0.13103125000000002 -0.1533546875 0.063109375 -0.325303125 0.063546875 -0.479040625 0.001421875 -0.1537265625 -0.06212500000000001 -0.2770140625 -0.182 -0.343459375 -0.33392187500000003Zm0 -6.09109375c0.06644531249999999 -0.151703125 0.189546875 -0.27135937499999996 0.34302187500000003 -0.333484375 0.153475 -0.06212500000000001 0.3251609375 -0.061796875 0.478384375 0.000984375 0.07568749999999999 0.029640625 0.144703125 0.07415624999999999 0.20299999999999999 0.130921875 0.058296875 0.056765625 0.1045625 0.124578125 0.13628125 0.199390625 0.031718750000000004 0.074921875 0.048124999999999994 0.15542187500000001 0.048234375 0.23668750000000002 0.000109375 0.08137499999999999 -0.01596875 0.161875 -0.047359374999999995 0.23690624999999998 -0.0665 0.15137499999999998 -0.189328125 0.2708125 -0.3425625 0.3329375 -0.1532453125 0.06212500000000001 -0.32464687499999995 0.061906249999999996 -0.47775 -0.0004375 -0.0758078125 -0.02953125 -0.14493281249999998 -0.074046875 -0.20330625 -0.130703125s-0.1048359375 -0.12446875 -0.13663125 -0.199390625c-0.0317953125 -0.074921875 -0.0482890625 -0.15542187500000001 -0.0485078125 -0.236796875 -0.00022968750000000002 -0.08137499999999999 0.015815625 -0.161984375 0.0471953125 -0.237015625Zm10.03734375 -3.23640625c-0.07546875 -0.0298046875 -0.14426562499999998 -0.07435312499999999 -0.20234375 -0.131053125 -0.05796875 -0.0567 -0.10412500000000001 -0.12440312499999999 -0.135734375 -0.1991609375 -0.031609374999999995 -0.07475781249999999 -0.04790625 -0.15505 -0.048124999999999994 -0.23620625 -0.000109375 -0.08114531250000001 0.015859375000000002 -0.1615140625 0.047140625 -0.2363921875 0.0665 -0.1513859375 0.189328125 -0.27085625 0.3425625 -0.332959375 0.153234375 -0.062103124999999995 0.324625 -0.0619390625 0.47775 0.00045937500000000004 0.07546875 0.0298046875 0.14426562499999998 0.07435312499999999 0.20234375 0.131053125 0.05796875 0.0567 0.10412500000000001 0.12440312499999999 0.135734375 0.1991609375 0.031609374999999995 0.07475781249999999 0.04790625 0.15505 0.048124999999999994 0.23620625 0.000109375 0.08114531250000001 -0.015859375000000002 0.1615140625 -0.047140625 0.2363921875 -0.066390625 0.1513859375 -0.189328125 0.27085625 -0.3425625 0.332959375 -0.153234375 0.062103124999999995 -0.324625 0.0619390625 -0.47775 -0.00045937500000000004Zm3.7898437499999997 8.8571875c0.06617187499999999 -0.15159375 0.189109375 -0.27125 0.34245312499999997 -0.33337500000000003 0.153234375 -0.06212500000000001 0.324734375 -0.061796875 0.47785937500000003 0.000875 0.07568749999999999 0.029640625 0.144703125 0.07393749999999999 0.20299999999999999 0.13059375 0.058296875 0.05665625 0.104671875 0.12425000000000001 0.13639062500000002 0.1990625 0.031828125 0.0748125 0.048343750000000005 0.15509375 0.048671874999999996 0.23635937499999998 0.00032812499999999997 0.08126562500000001 -0.015640625000000002 0.161765625 -0.0468125 0.236796875 -0.066390625 0.15137499999999998 -0.189328125 0.2708125 -0.3425625 0.3329375 -0.153234375 0.06212500000000001 -0.324625 0.061906249999999996 -0.47775 -0.0004375 -0.07568749999999999 -0.029640625 -0.144703125 -0.07393749999999999 -0.20299999999999999 -0.13059375 -0.058296875 -0.05665625 -0.104671875 -0.12425000000000001 -0.13639062500000002 -0.1990625 -0.031828125 -0.0748125 -0.048343750000000005 -0.15509375 -0.048671874999999996 -0.23635937499999998 -0.00032812499999999997 -0.08126562500000001 0.015640625000000002 -0.161765625 0.0468125 -0.236796875Zm-9.71578125 5.018125c-0.075578125 -0.029640625 -0.144484375 -0.07415624999999999 -0.2025625 -0.1308125 -0.058187499999999996 -0.05665625 -0.10434375 -0.12446875 -0.13595312499999998 -0.19917187500000003 -0.031609374999999995 -0.0748125 -0.04790625 -0.155203125 -0.048015625 -0.23635937499999998 -0.000109375 -0.08126562500000001 0.016078125 -0.16165624999999997 0.047468750000000004 -0.23646875 0.066390625 -0.15137499999999998 0.189328125 -0.2708125 0.3425625 -0.3329375 0.153234375 -0.06212500000000001 0.324625 -0.061906249999999996 0.47775 0.0004375 0.07546875 0.02975 0.14426562499999998 0.07437500000000001 0.20234375 0.13103125000000002 0.05796875 0.056765625 0.10412500000000001 0.12446875 0.135734375 0.19917187500000003 0.031609374999999995 0.0748125 0.04790625 0.15509375 0.048124999999999994 0.23625 0.000109375 0.08115625 -0.015859375000000002 0.1614375 -0.047140625 0.23635937499999998 -0.066390625 0.15137499999999998 -0.189328125 0.2708125 -0.3425625 0.3329375 -0.153234375 0.06212500000000001 -0.324625 0.061906249999999996 -0.47775 -0.0004375Zm9.23453125 -1.7828125c0.068140625 -0.065734375 0.15903125 -0.102484375 0.25375000000000003 -0.102484375 0.09471874999999999 0 0.185609375 0.03675 0.25375000000000003 0.102484375 0.14109375000000002 0.1378125 0.14109375000000002 0.3609375 0 0.49765625s-0.36640625000000004 0.13671875 -0.5075000000000001 0c-0.03325 -0.032265625 -0.05971875 -0.070765625 -0.07776562499999999 -0.113421875 -0.01815625 -0.04265625 -0.027453125000000002 -0.088484375 -0.027453125000000002 -0.134859375 0 -0.046375 0.009296875000000001 -0.092203125 0.027453125000000002 -0.134859375 0.018046875 -0.04265625 0.044515625 -0.08115625 0.07776562499999999 -0.113421875v-0.00109375ZM11.3203125 10.84125c0.14 -0.13671875 0.36750000000000005 -0.13671875 0.5075000000000001 0s0.14 0.3609375 0 0.49765625c-0.068140625 0.065734375 -0.15903125 0.102484375 -0.25375000000000003 0.102484375 -0.09471874999999999 0 -0.185609375 -0.03675 -0.25375000000000003 -0.102484375 -0.03325 -0.032265625 -0.05971875 -0.070765625 -0.07776562499999999 -0.113421875 -0.01815625 -0.04265625 -0.027453125000000002 -0.088484375 -0.027453125000000002 -0.134859375 0 -0.046375 0.009296875000000001 -0.092203125 0.027453125000000002 -0.134859375 0.018046875 -0.042612500000000005 0.044515625 -0.0812 0.07776562499999999 -0.113421875v-0.00109375Zm12.210625 0.49765625c-0.03325 -0.032265625 -0.05971875 -0.070765625 -0.07776562499999999 -0.113421875 -0.01815625 -0.04265625 -0.027453125000000002 -0.088484375 -0.027453125000000002 -0.134859375 0 -0.046375 0.009296875000000001 -0.092203125 0.027453125000000002 -0.134859375 0.018046875 -0.042612500000000005 0.044515625 -0.0812 0.07776562499999999 -0.113421875 0.14109375000000002 -0.1378125 0.36750000000000005 -0.1378125 0.5075000000000001 0s0.14109375000000002 0.35875 0 0.4965625c-0.068140625 0.065734375 -0.15903125 0.102484375 -0.25375000000000003 0.102484375 -0.09471874999999999 0 -0.185609375 -0.03675 -0.25375000000000003 -0.102484375ZM11.3203125 23.4565625c-0.03325 -0.032265625 -0.05971875 -0.070765625 -0.07776562499999999 -0.113421875 -0.01815625 -0.04265625 -0.027453125000000002 -0.088484375 -0.027453125000000002 -0.134859375 0 -0.046375 0.009296875000000001 -0.092203125 0.027453125000000002 -0.134859375 0.018046875 -0.04265625 0.044515625 -0.08115625 0.07776562499999999 -0.113421875 0.068140625 -0.065734375 0.15903125 -0.102484375 0.25375000000000003 -0.102484375 0.09471874999999999 0 0.185609375 0.03675 0.25375000000000003 0.102484375 0.14 0.13671875 0.14 0.35984375 0 0.4965625s-0.36750000000000005 0.13671875 -0.5075000000000001 0Zm14.798437499999999 -6.39515625c0 -0.19468749999999999 0.161875 -0.3521875 0.35984375 -0.3521875 0.19796875 0 0.35875 0.1575 0.35875 0.3521875 -0.001421875 0.09384375 -0.04003125 0.18342187499999998 -0.1071875 0.2489375 -0.067265625 0.065625 -0.157609375 0.1019375 -0.2515625 0.1010625 -0.093953125 0.000875 -0.184296875 -0.0354375 -0.2515625 -0.1010625 -0.06715625 -0.06551562500000001 -0.10576562499999999 -0.15509375 -0.1071875 -0.2489375h-0.00109375Zm-17.41796875 0c0 -0.19468749999999999 0.16078125 -0.3521875 0.35984375 -0.3521875 0.196875 0 0.35875 0.1575 0.35875 0.3521875 -0.00144375 0.09384375 -0.0399765625 0.18342187499999998 -0.1071984375 0.2489375 -0.0672109375 0.065625 -0.15765312499999998 0.1019375 -0.2515515625 0.1010625 -0.0940953125 0.001203125 -0.18481093750000002 -0.035 -0.2522625 -0.10062499999999999s-0.1061375 -0.1553125 -0.10758125 -0.249375Zm8.9796875 -8.079531249999999c-0.0468125 0.000721875 -0.09318749999999999 -0.007787499999999999 -0.13671875 -0.0250578125 -0.043421875 -0.0172703125 -0.083125 -0.042940625 -0.11659375 -0.0755671875 -0.033578125 -0.032615625 -0.060375 -0.07153125 -0.07875 -0.11450468750000001 -0.018484374999999997 -0.042984375000000005 -0.028328125 -0.089184375 -0.028875 -0.1359640625 0 -0.19468749999999999 0.161875 -0.3521875 0.3609375 -0.3521875 0.196875 0 0.35875 0.1575 0.35875 0.3521875 -0.001421875 0.094084375 -0.040140625000000006 0.1837609375 -0.107625 0.249375 -0.067375 0.065603125 -0.15815625 0.1017953125 -0.25221875 0.10062499999999999l0.00109375 0.00109375Zm0 17.03625c-0.046703125000000005 0.000765625 -0.093078125 -0.007765625000000001 -0.13649999999999998 -0.0249375 -0.043312500000000004 -0.017171875 -0.08290625 -0.042765625 -0.116484375 -0.07525 -0.03346875 -0.03259375 -0.060265625 -0.07131249999999999 -0.078859375 -0.11418750000000001 -0.018484374999999997 -0.042874999999999996 -0.028328125 -0.088921875 -0.029093749999999998 -0.135625 0 -0.19468749999999999 0.161875 -0.3521875 0.3609375 -0.3521875 0.196875 0 0.35875 0.1575 0.35875 0.35109375 -0.000546875 0.046703125000000005 -0.01028125 0.09275 -0.028765625 0.135734375 -0.018375 0.042874999999999996 -0.0450625 0.081703125 -0.078421875 0.11429687499999999 -0.03346875 0.032703125 -0.072953125 0.05840625000000001 -0.11626562500000001 0.07568749999999999 -0.043421875 0.01728125 -0.0896875 0.025921874999999997 -0.13639062500000002 0.025374999999999998h0.00109375Zm11.1321875 -8.9578125c0 -0.19359374999999998 0.161875 -0.35000000000000003 0.35984375 -0.35000000000000003 0.196875 0 0.35875 0.15640625 0.35875 0.35000000000000003 -0.0004375 0.046703125000000005 -0.0100625 0.09285937500000001 -0.028328125 0.135734375 -0.018265625 0.042984375000000005 -0.044734375 0.08192187499999999 -0.07809375 0.114625 -0.033359375 0.032703125 -0.072734375 0.058515625 -0.116046875 0.076015625 -0.043312500000000004 0.0175 -0.089578125 0.02625 -0.13628125 0.0258125 -0.046703125000000005 0.000546875 -0.09296875 -0.00809375 -0.13639062500000002 -0.025374999999999998 -0.043312500000000004 -0.01728125 -0.082796875 -0.042984375000000005 -0.11626562500000001 -0.07568749999999999 -0.033359375 -0.03259375 -0.060046875 -0.071421875 -0.078421875 -0.11429687499999999 -0.018484374999999997 -0.042984375000000005 -0.02821875 -0.08903125 -0.028765625 -0.135734375v-0.00109375Zm-23.074843750000003 -0.17500000000000002c0.14875000000000002 0 0.27015625 0.118125 0.27015625 0.2625s-0.1203125 0.26468749999999996 -0.27015625 0.26468749999999996c-0.14875000000000002 0 -0.2690625 -0.118125 -0.2690625 -0.26359375s0.1203125 -0.26359375 0.2690625 -0.26359375ZM17.14125 5.8198437499999995c0 -0.19359374999999998 0.16078125 -0.35109375 0.35875 -0.35109375 0.19796875 0 0.35875 0.1575 0.35875 0.35109375 0 0.19359374999999998 -0.16078125 0.35109375 -0.35875 0.35109375 -0.19796875 0 -0.35875 -0.15859374999999998 -0.35875 -0.35109375Zm10.63671875 15.42734375c0.057640624999999994 -0.129609375 0.163734375 -0.23165624999999998 0.29553125 -0.28415625 0.131796875 -0.0525 0.27890625 -0.05140625 0.4099375 0.0030625 0.064640625 0.026031250000000002 0.12348437500000001 0.064640625 0.17303125 0.11364062500000001 0.049546875 0.049 0.088921875 0.10740625 0.11571875000000001 0.17171875 0.026687500000000003 0.0643125 0.04046875 0.133328125 0.04025 0.20299999999999999 -0.00021875 0.06978124999999999 -0.014218749999999999 0.1386875 -0.04134375 0.202890625 -0.057203125 0.130265625 -0.16340625 0.23274999999999998 -0.29574999999999996 0.28524999999999995 -0.132234375 0.052390624999999996 -0.279890625 0.05053125 -0.41081249999999997 -0.0052499999999999995 -0.06453125 -0.026031250000000002 -0.12315625000000001 -0.064640625 -0.17259375 -0.11353125 -0.049546875 -0.04889062499999999 -0.08870312500000001 -0.1071875 -0.115390625 -0.17149999999999999 -0.026687500000000003 -0.064203125 -0.04025 -0.133109375 -0.04003125 -0.202671875 0.00021875 -0.0695625 0.014328125 -0.138359375 0.041453125 -0.20245312499999998Zm-5.8296875 5.6765625c0.043421875 0.017609375 0.083015625 0.043640624999999995 0.11615625 0.07678125 0.03325 0.03303125 0.059609375 0.07240624999999999 0.0774375 0.11571875000000001 0.017828124999999997 0.0424375 0.02690625 0.088046875 0.026796875 0.13409375 -0.00021875 0.046046875 -0.009734375 0.091546875 -0.027890625 0.133875 -0.02865625 0.06409375 -0.07546875 0.1185625 -0.13453125 0.156515625 -0.059171875000000006 0.0380625 -0.128078125 0.058078125 -0.19829687499999998 0.057640624999999994 -0.07032812499999999 -0.0004375 -0.13890625 -0.021437499999999998 -0.19753125000000002 -0.06015625 -0.058515625 -0.038828125 -0.1045625 -0.09384375 -0.132453125 -0.15837500000000002 -0.018046875 -0.042328125 -0.02734375 -0.0879375 -0.02734375 -0.133984375s0.009296875000000001 -0.09165625 0.02734375 -0.133984375c0.018593750000000003 -0.042984375000000005 0.045609375 -0.08192187499999999 0.07940625 -0.11440625 0.033796875 -0.032484375 0.07371875 -0.057859375000000005 0.11746875 -0.0748125 0.088046875 -0.03434375 0.1859375 -0.033578125 0.2734375 0.0021875v-0.00109375ZM7.0459375 12.34734375c0.08750000000000001 0.037187500000000005 0.15640625 0.105 0.19249999999999998 0.19140625 0.018003125 0.042546875 0.0271796875 0.088375 0.02699375 0.134640625 -0.0001859375 0.046265625 -0.009745312499999999 0.091984375 -0.0280875 0.134421875 -0.0287109375 0.06409375 -0.07546875 0.1185625 -0.1345640625 0.156515625 -0.05910625 0.0380625 -0.127990625 0.058078125 -0.198275 0.057640624999999994 -0.07027343750000001 -0.0004375 -0.138884375 -0.021437499999999998 -0.1974875 -0.06015625 -0.0585921875 -0.038828125 -0.10462812499999999 -0.09384375 -0.1324859375 -0.15837500000000002 -0.018003125 -0.042546875 -0.0271796875 -0.088375 -0.02699375 -0.134640625 0.0001859375 -0.046265625 0.009745312499999999 -0.091984375 0.0280875 -0.134421875 0.0185609375 -0.042765625 0.0454234375 -0.08137499999999999 0.079034375 -0.11364062500000001 0.0336109375 -0.032375 0.0732921875 -0.057640624999999994 0.116746875 -0.07448437499999999 0.0882109375 -0.035109375 0.18659375 -0.034671875 0.27453125 0.00109375Zm-1.001875 9.0234375c0.048026562499999995 -0.108171875 0.1365109375 -0.193265625 0.24649843749999997 -0.237015625 0.1099875 -0.043750000000000004 0.232728125 -0.04265625 0.3419390625 0.002953125 0.053867187500000004 0.021546875 0.102878125 0.053703125 0.14414531249999998 0.0945 0.041278125000000006 0.040687499999999995 0.07398125000000001 0.08935937499999999 0.0961953125 0.14295312500000001 0.022214062500000003 0.05359375 0.033490625 0.111125 0.0331625 0.16909375 -0.00032812499999999997 0.058078125 -0.01225 0.115390625 -0.035065624999999996 0.168765625 -0.048234375 0.107953125 -0.1367953125 0.19282812500000002 -0.2467609375 0.23635937499999998 -0.10996562500000001 0.04353125 -0.23259687499999998 0.042328125 -0.3416765625 -0.003390625 -0.053867187500000004 -0.021546875 -0.102878125 -0.053703125 -0.14414531249999998 -0.0945 -0.041278125000000006 -0.040687499999999995 -0.07398125000000001 -0.08935937499999999 -0.0961953125 -0.14295312500000001 -0.022214062500000003 -0.05359375 -0.033490625 -0.111125 -0.0331625 -0.16909375 0.00032812499999999997 -0.058078125 0.01225 -0.11429687499999999 0.035065624999999996 -0.167671875ZM21.725156249999998 6.838125c-0.053921874999999994 -0.021459375 -0.10303125 -0.0534953125 -0.144484375 -0.0942375 -0.04134375 -0.040731250000000004 -0.07415624999999999 -0.08932656250000001 -0.09646875 -0.1429421875 -0.022421875 -0.0536046875 -0.0336875 -0.111146875 -0.03346875 -0.16921406249999998 0.00021875 -0.0580671875 0.012140625 -0.1155 0.034890624999999995 -0.16891875 0.048015625 -0.1081828125 0.13649999999999998 -0.19325468750000002 0.24653124999999998 -0.2370046875 0.109921875 -0.043750000000000004 0.232640625 -0.0426890625 0.34190624999999997 0.0029421875 0.0538125 0.02156875 0.10292187500000001 0.05368125 0.14415625 0.09445625 0.041234375 0.040785937499999994 0.07393749999999999 0.08940312499999999 0.09614062500000001 0.142996875 0.022203124999999997 0.0536046875 0.033578125 0.111103125 0.03325 0.1691265625 -0.00032812499999999997 0.058012499999999995 -0.01225 0.115390625 -0.035109375 0.1687328125 -0.048015625 0.107909375 -0.13628125 0.192784375 -0.24609375 0.2365125 -0.109703125 0.043728125 -0.23220312499999998 0.042853125 -0.34125 -0.00245Zm6.71671875 5.32328125c0.066390625 -0.026578124999999998 0.14054687500000002 -0.026140625 0.20671875 0.00109375 0.048343750000000005 0.01990625 0.0896875 0.0538125 0.1185625 0.097453125 0.028984375 0.04353125 0.044296875 0.09471874999999999 0.043859375 0.147 -0.00032812499999999997 0.05228125 -0.016296875 0.103359375 -0.045828125 0.146453125 -0.02953125 0.043203125 -0.071203125 0.0765625 -0.11987500000000001 0.0958125 -0.06584374999999999 0.026359375 -0.139234375 0.026031250000000002 -0.20485937499999998 -0.000984375 -0.06551562500000001 -0.02690625 -0.118015625 -0.078421875 -0.14623437500000003 -0.143390625 -0.0135625 -0.032046875 -0.020453125000000003 -0.0665 -0.020343749999999997 -0.10128125 0.00021875 -0.03478125 0.007546875 -0.069234375 0.021437499999999998 -0.1010625 0.013890625 -0.032046875 0.034015625 -0.060921875 0.059171875000000006 -0.08520312499999999 0.025156249999999998 -0.024171875000000002 0.054906250000000004 -0.043203125 0.087390625 -0.055890625ZM12.67328125 6.5078125c0.028546875000000003 -0.06488125 0.081484375 -0.1159265625 0.1474375 -0.142121875 0.06584374999999999 -0.026184375 0.139453125 -0.0254296875 0.20475000000000002 0.002121875 0.04878125 0.019512500000000002 0.0905625 0.053276562500000006 0.11987500000000001 0.09688437500000001 0.029312500000000002 0.04361875 0.04484375 0.095046875 0.044406249999999994 0.147590625 -0.00032812499999999997 0.0525546875 -0.016515625 0.103775 -0.046375 0.146978125 -0.029859375 0.043214062500000004 -0.0721875 0.076409375 -0.12118749999999999 0.09526562499999999 -0.0660625 0.026403125000000003 -0.13978125 0.026009374999999998 -0.205625 -0.00109375 -0.032265625 -0.013059375 -0.0616875 -0.032418749999999996 -0.08640625 -0.0569296875 -0.024718749999999998 -0.024521875 -0.044296875 -0.0537140625 -0.057640624999999994 -0.08588125 -0.013343750000000001 -0.03215625 -0.020125 -0.0666640625 -0.020015625 -0.101478125 0.000109375 -0.034825 0.00721875 -0.0692671875 0.02078125 -0.1013359375Zm0.06890625 20.7396875c0.035 0 0.07 0.00765625 0.10390625 0.021875000000000002 0.032265625 0.01290625 0.061578125000000004 0.03215625 0.086296875 0.05665625 0.024718749999999998 0.024390625 0.044296875 0.053484375 0.057640624999999994 0.08553125 0.013343750000000001 0.032046875 0.020125 0.0665 0.020015625 0.10128125 -0.000109375 0.034671875 -0.007109374999999999 0.069125 -0.020671875 0.1010625 -0.028765625 0.064640625 -0.08181250000000001 0.1155 -0.147546875 0.14175 -0.06584374999999999 0.026140625 -0.139234375 0.025484375 -0.204640625 -0.00175 -0.032265625 -0.013015625000000001 -0.061578125000000004 -0.03215625 -0.086296875 -0.056546875 -0.024828125000000003 -0.024390625 -0.044406249999999994 -0.053484375 -0.057859375000000005 -0.08553125 -0.013453125 -0.032046875 -0.020343749999999997 -0.0665 -0.020453125000000003 -0.101171875 0 -0.03478125 0.006890625 -0.069234375 0.020234375 -0.10128125 0.02121875 -0.048453125 0.056109374999999996 -0.089578125 0.10040625 -0.11834375000000001 0.044296875 -0.028765625 0.09614062500000001 -0.043859375 0.14896874999999998 -0.04353125Zm12.733437499999999 -1.859375c-0.068140625 0.0660625 -0.159359375 0.10303125 -0.25429687500000003 0.10303125 -0.09493750000000001 0 -0.18615625 -0.036968749999999995 -0.25429687500000003 -0.10303125 -0.03325 -0.032265625 -0.05971875 -0.070765625 -0.07776562499999999 -0.113421875 -0.01815625 -0.04265625 -0.027453125000000002 -0.088484375 -0.027453125000000002 -0.134859375 0 -0.046375 0.009296875000000001 -0.092203125 0.027453125000000002 -0.134859375 0.018046875 -0.04265625 0.044515625 -0.08115625 0.07776562499999999 -0.113421875 0.06803125 -0.0665 0.15968749999999998 -0.10346875 0.25484375000000004 -0.1028125 0.094828125 -0.0004375 0.1859375 0.03653125 0.25375000000000003 0.1028125 0.03346875 0.032265625 0.060046875 0.070875 0.078203125 0.11364062500000001 0.01815625 0.042765625 0.0275625 0.08870312500000001 0.0275625 0.1351875 0 0.046484375 -0.00940625 0.092421875 -0.0275625 0.1351875 -0.01815625 0.042765625 -0.044734375 0.08028125000000001 -0.078203125 0.112546875ZM8.678906249999999 8.78609375c0.1022109375 -0.09896250000000001 0.238896875 -0.1542953125 0.381171875 -0.1542953125 0.14226406249999998 0 0.2789609375 0.0553328125 0.381171875 0.1542953125 0.0497765625 0.048409375 0.0893375 0.10631249999999999 0.1163640625 0.17028593749999998 0.027015625 0.06396249999999999 0.040928125 0.13269375 0.040928125 0.2021359375s-0.013912500000000001 0.1381734375 -0.040928125 0.2021359375c-0.0270265625 0.0639734375 -0.0665875 0.121865625 -0.1163640625 0.17028593749999998 -0.101675 0.099990625 -0.23856875 0.156034375 -0.381171875 0.156034375 -0.142603125 0 -0.279496875 -0.05604375 -0.381171875 -0.156034375 -0.0497765625 -0.0484203125 -0.0893375 -0.10631249999999999 -0.1163640625 -0.17028593749999998 -0.027015625 -0.06396249999999999 -0.040928125 -0.13269375 -0.040928125 -0.2021359375s0.013912500000000001 -0.1381734375 0.040928125 -0.2021359375c0.0270265625 -0.0639734375 0.0665875 -0.12187656250000001 0.1163640625 -0.17028593749999998Zm16.98046875 0.0984375c0.050749999999999997 -0.0499625 0.11910937499999999 -0.0779734375 0.1903125 -0.0779734375 0.071203125 0 0.13956249999999998 0.0280109375 0.1903125 0.0779734375 0.024718749999999998 0.0242375 0.044406249999999994 0.0531671875 0.057859375000000005 0.08509375 0.013343750000000001 0.0319265625 0.020234375 0.066215625 0.020234375 0.10084375000000001 0 0.034628125 -0.006890625 0.06891718749999999 -0.020234375 0.10084375000000001 -0.013453125 0.0319265625 -0.033140625 0.06085625 -0.057859375000000005 0.08509375 -0.05096875 0.0494484375 -0.11921875 0.07709843749999999 -0.1903125 0.07709843749999999 -0.07109375 0 -0.13934375000000002 -0.02765 -0.1903125 -0.07709843749999999 -0.025046875 -0.024084375 -0.044953125 -0.052959374999999996 -0.058515625 -0.0849078125 -0.0135625 -0.0319484375 -0.0205625 -0.0663140625 -0.0205625 -0.10102968749999999 0 -0.034715625 0.007 -0.06908125 0.0205625 -0.10102968749999999 0.0135625 -0.0319484375 0.03346875 -0.0608234375 0.058515625 -0.0849078125ZM8.77953125 24.86640625c0.0507390625 -0.049984375 0.1190984375 -0.07798437500000001 0.1903125 -0.07798437500000001 0.07121406250000001 0 0.1395734375 0.028 0.1903125 0.07798437500000001 0.024871874999999998 0.024171875000000002 0.044646875 0.053046875 0.05814375 0.084984375 0.0135078125 0.0319375 0.0204640625 0.06628125 0.0204640625 0.10095312499999999 0 0.034671875 -0.006956250000000001 0.069015625 -0.0204640625 0.10095312499999999 -0.013496875 0.0319375 -0.033271875 0.0608125 -0.05814375 0.084984375 -0.0510125 0.049437499999999995 -0.1192625 0.077109375 -0.1903125 0.077109375 -0.0710390625 0 -0.1393 -0.027671875 -0.1903125 -0.077109375 -0.024871874999999998 -0.024171875000000002 -0.044646875 -0.053046875 -0.05814375 -0.084984375 -0.0135078125 -0.0319375 -0.0204640625 -0.06628125 -0.0204640625 -0.10095312499999999 0 -0.034671875 0.006956250000000001 -0.069015625 0.0204640625 -0.10095312499999999 0.013496875 -0.0319375 0.033271875 -0.0608125 0.05814375 -0.084984375ZM17.5896875 29.53125c-0.11757812499999999 0.001203125 -0.23089062500000002 -0.044406249999999994 -0.314890625 -0.126546875 -0.084109375 -0.08225 -0.132125 -0.19446875000000002 -0.133546875 -0.312046875 0 -0.24281250000000001 0.20015625 -0.4396875 0.4484375 -0.4396875 0.24828125 0 0.4484375 0.196875 0.4484375 0.4396875 -0.001421875 0.11757812499999999 -0.049437499999999995 0.229796875 -0.133546875 0.312046875 -0.08399999999999999 0.082140625 -0.1973125 0.12775 -0.314890625 0.126546875Z" clip-rule="evenodd" stroke-width="1.0938"></path></svg>