<svg xmlns="http://www.w3.org/2000/svg" viewBox="-0.44 -0.44 14 14" id="Dollar-Sign--Streamline-Atlas" height="14" width="14"><desc>Dollar Sign Streamline Icon: https://streamlinehq.com</desc><defs></defs><g id="dollar_2"><path d="m5.515866666666668 0.8200000000000001 0 1.5634666666666668" fill="none" stroke="#ffffff" stroke-linecap="square" stroke-miterlimit="10" stroke-width="0.88"></path><path d="m5.515866666666668 10.736533333333336 0 1.5634666666666668" fill="none" stroke="#ffffff" stroke-linecap="square" stroke-miterlimit="10" stroke-width="0.88"></path><path d="m7.604133333333334 0.8200000000000001 0 1.5634666666666668" fill="none" stroke="#ffffff" stroke-linecap="square" stroke-miterlimit="10" stroke-width="0.88"></path><path d="m7.604133333333334 10.736533333333336 0 1.5634666666666668" fill="none" stroke="#ffffff" stroke-linecap="square" stroke-miterlimit="10" stroke-width="0.88"></path><path d="M3.4276000000000004 9.167600000000002h0a1.5689333333333335 1.5689333333333335 0 0 0 1.5689333333333335 1.5689333333333335h2.6076a2.0882666666666667 2.0882666666666667 0 0 0 2.0882666666666667 -2.0882666666666667h0A2.0882666666666667 2.0882666666666667 0 0 0 7.604133333333334 6.5600000000000005h-2.0882666666666667a2.0882666666666667 2.0882666666666667 0 0 1 -2.0882666666666667 -2.0882666666666667h0a2.0882666666666667 2.0882666666666667 0 0 1 2.0882666666666667 -2.0882666666666667h2.6076a1.5689333333333335 1.5689333333333335 0 0 1 1.5689333333333335 1.5689333333333335h0" fill="none" stroke="#ffffff" stroke-linecap="square" stroke-miterlimit="10" stroke-width="0.88"></path></g></svg>